# xmcd
#
# Track frame offsets:
#	150
#	14230
#	35850
#	51950
#	71913
#	93634
#	107486
#	122838
#	145405
#	160590
#	172468
#	185816
#	208491
#	224198
#	241531
#	264121
#	286248
#	304762
#
# Disc length: 4375 seconds
#
# Revision: 4
# Processed by: cddbd v1.5.1PL2 Copyright (c) Steve Scherf et al.
# Submitted via: EasyCDDAExtractor 7.0.5.1
#
DISCID=27111512
DTITLE=Various Artist - Love Ballad I - 그대와 함께
DYEAR=1900
DGENRE=Ballad
TTITLE0=One Flight Down
TTITLE1=Mi Morena
TTITLE2=When Will I See You Again
TTITLE3=Long Long Time
TTITLE4=Will You Still Love Me Tomorrow
TTITLE5=Chicks
TTITLE6=Love Hurt
TTITLE7=The lady wants to know
TTITLE8=Easy Street Dream
TTITLE9=As Time Goes By
TTITLE10=Words You Whisper
TTITLE11=Just When I Needed You Most
TTITLE12=Dream A Little Dream Of Me
TTITLE13=When You Say Nothing at All
TTITLE14=Remember When It Rained
TTITLE15=Estrana
TTITLE16=Ti ricordi perch
TTITLE17=A Lover In Berlin
EXTD=
EXTT0=
EXTT1=
EXTT2=
EXTT3=
EXTT4=
EXTT5=
EXTT6=
EXTT7=
EXTT8=
EXTT9=
EXTT10=
EXTT11=
EXTT12=
EXTT13=
EXTT14=
EXTT15=
EXTT16=
EXTT17=
PLAYORDER=
